<svg aria-hidden="true" viewBox="0 0 320 520" fill="none" preserveAspectRatio="none" xmlns="http://www.w3.org/2000/svg"><g transform="translate(280 260)"><line x1="0" y1="0" x2="-340" y2="0" transform="rotate(-72)" stroke="#2A1A0E" stroke-opacity="0.16000000000000003" stroke-width="1.3"></line><line x1="0" y1="0" x2="-340" y2="0" transform="rotate(-54)" stroke="#2A1A0E" stroke-opacity="0.16000000000000003" stroke-width="1.3"></line><line x1="0" y1="0" x2="-340" y2="0" transform="rotate(-38)" stroke="#D4621A" stroke-opacity="0.256" stroke-width="1.3"></line><line x1="0" y1="0" x2="-340" y2="0" transform="rotate(-24)" stroke="#2A1A0E" stroke-opacity="0.16000000000000003" stroke-width="1.3"></line><line x1="0" y1="0" x2="-340" y2="0" transform="rotate(-11)" stroke="#2A1A0E" stroke-opacity="0.16000000000000003" stroke-width="1.3"></line><line x1="0" y1="0" x2="-340" y2="0" transform="rotate(2)" stroke="#2A1A0E" stroke-opacity="0.16000000000000003" stroke-width="1.3"></line><line x1="0" y1="0" x2="-340" y2="0" transform="rotate(15)" stroke="#2A1A0E" stroke-opacity="0.16000000000000003" stroke-width="1.3"></line><line x1="0" y1="0" x2="-340" y2="0" transform="rotate(29)" stroke="#D4621A" stroke-opacity="0.256" stroke-width="1.3"></line><line x1="0" y1="0" x2="-340" y2="0" transform="rotate(44)" stroke="#2A1A0E" stroke-opacity="0.16000000000000003" stroke-width="1.3"></line><line x1="0" y1="0" x2="-340" y2="0" transform="rotate(61)" stroke="#2A1A0E" stroke-opacity="0.16000000000000003" stroke-width="1.3"></line><line x1="0" y1="0" x2="-340" y2="0" transform="rotate(78)" stroke="#2A1A0E" stroke-opacity="0.16000000000000003" stroke-width="1.3"></line><circle cx="0" cy="0" r="4" stroke="#D4621A" stroke-opacity="0.44800000000000006" stroke-width="1.3"></circle></g></svg>
